<?xml version="1.0" encoding="UTF-8" standalone="no"?>
<!-- Created with Inkscape (http://www.inkscape.org/) -->

<svg
   xmlns:dc="http://purl.org/dc/elements/1.1/"
   xmlns:cc="http://creativecommons.org/ns#"
   xmlns:rdf="http://www.w3.org/1999/02/22-rdf-syntax-ns#"
   xmlns:svg="http://www.w3.org/2000/svg"
   xmlns="http://www.w3.org/2000/svg"
   xmlns:sodipodi="http://sodipodi.sourceforge.net/DTD/sodipodi-0.dtd"
   xmlns:inkscape="http://www.inkscape.org/namespaces/inkscape"
   width="64.944786mm"
   height="12.657991mm"
   viewBox="0 0 64.944786 12.657991"
   version="1.1"
   id="svg8"
   inkscape:version="0.92.1 r15371"
   sodipodi:docname="рисунок.svg">
  <defs
     id="defs2">
    <linearGradient
       gradientUnits="userSpaceOnUse"
       y2="39.1521"
       x2="48.262199"
       y1="19.8286"
       x1="66.695198"
       id="paint0_linear_206_358">
      <stop
         id="stop3708"
         stop-color="#E2B802" />
      <stop
         id="stop3710"
         stop-color="#D8B03F"
         offset="0.325356" />
      <stop
         id="stop3712"
         stop-color="#AB7114"
         offset="1" />
    </linearGradient>
    <linearGradient
       gradientUnits="userSpaceOnUse"
       y2="6.5728202"
       x2="69.599701"
       y1="29.33"
       x1="53.767502"
       id="paint1_linear_206_358">
      <stop
         id="stop3715"
         stop-color="#E2B802" />
      <stop
         id="stop3717"
         stop-color="#D0A73E"
         offset="0.41465" />
      <stop
         id="stop3719"
         stop-color="#AB7114"
         offset="1" />
    </linearGradient>
    <linearGradient
       gradientUnits="userSpaceOnUse"
       y2="36.338902"
       x2="59.063301"
       y1="17.959999"
       x1="36.323299"
       id="paint2_linear_206_358">
      <stop
         id="stop3722"
         stop-color="#23599C" />
      <stop
         id="stop3724"
         stop-color="#203C7C"
         offset="0.994266" />
    </linearGradient>
    <linearGradient
       gradientUnits="userSpaceOnUse"
       y2="40.856701"
       x2="76.663399"
       y1="17.0264"
       x1="56.259701"
       id="paint3_linear_206_358">
      <stop
         id="stop3727"
         stop-color="#203C7C" />
      <stop
         id="stop3729"
         stop-color="#22498A"
         offset="0.544112" />
      <stop
         id="stop3731"
         stop-color="#245B9D"
         offset="1" />
    </linearGradient>
    <linearGradient
       gradientUnits="userSpaceOnUse"
       y2="34.5933"
       x2="25.6499"
       y1="17.6481"
       x1="18.3018"
       id="paint4_linear_206_358"
       gradientTransform="matrix(1.0036209,0,0,0.93350285,-0.46221927,1.0271215)">
      <stop
         id="stop3734"
         stop-color="#E2B802" />
      <stop
         id="stop3736"
         stop-color="#D6AE3E"
         offset="0.527917" />
      <stop
         id="stop3738"
         stop-color="#AB7114"
         offset="1" />
    </linearGradient>
    <clipPath
       id="clip0_206_358">
      <rect
         id="rect3741"
         transform="translate(35.233,1.13867)"
         height="47.348999"
         width="210.267"
         x="0"
         y="0"
         style="fill:#ffffff" />
    </clipPath>
  </defs>
  <sodipodi:namedview
     id="base"
     pagecolor="#ffffff"
     bordercolor="#666666"
     borderopacity="1.0"
     inkscape:pageopacity="0.0"
     inkscape:pageshadow="2"
     inkscape:zoom="7.9195959"
     inkscape:cx="106.69768"
     inkscape:cy="18.197566"
     inkscape:document-units="mm"
     inkscape:current-layer="layer1"
     showgrid="false"
     inkscape:window-width="1920"
     inkscape:window-height="1017"
     inkscape:window-x="-8"
     inkscape:window-y="-8"
     inkscape:window-maximized="1"
     inkscape:snap-page="false" />
  <metadata
     id="metadata5">
    <rdf:RDF>
      <cc:Work
         rdf:about="">
        <dc:format>image/svg+xml</dc:format>
        <dc:type
           rdf:resource="http://purl.org/dc/dcmitype/StillImage" />
        <dc:title></dc:title>
      </cc:Work>
    </rdf:RDF>
  </metadata>
  <g
     inkscape:label="Layer 1"
     inkscape:groupmode="layer"
     id="layer1"
     transform="translate(-61.588665,-25.095026)">
    <g
       style="fill:none"
       id="g3803"
       transform="matrix(0.26458333,0,0,0.26458333,61.584271,24.923988)">
      <g
         id="g3700"
         clip-path="url(#clip0_206_358)">
        <path
           id="path3680"
           d="m 59.3118,48.487 c 8.4488,0 15.4189,-6.7494 15.4189,-15.1599 0,-8.3069 -6.8645,-15.1601 -15.4189,-15.1601 3.6963,0 6.759,2.9074 6.759,6.5416 0,8.3069 -6.8646,15.1601 -15.4189,15.1601 -8.5543,0.1037 -15.4189,-6.7493 -15.4189,-15.0562 0,13.0833 10.7721,23.6745 24.0788,23.6745 z"
           inkscape:connector-curvature="0"
           style="fill:url(#paint0_linear_206_358)" />
        <path
           id="path3682"
           d="m 52.5528,24.8132 c 0,-8.3069 6.8645,-15.16001 15.4188,-15.16001 8.5544,0 15.4189,6.74931 15.4189,15.16001 0,-13.0833 -10.7721,-23.67453 -24.0788,-23.67453 -8.4488,0 -15.4189,6.74931 -15.4189,15.16003 0,8.3068 6.8646,15.16 15.4189,15.16 -3.6963,-0.1039 -6.7589,-3.0113 -6.7589,-6.6455 z"
           inkscape:connector-curvature="0"
           style="fill:url(#paint1_linear_206_358)" />
        <path
           id="path3684"
           d="m 35.233,24.8132 c 0,8.3068 6.8646,15.1599 15.4189,15.1599 8.4487,0 15.4189,-6.7492 15.4189,-15.1599 0,3.6342 -2.9571,6.6455 -6.6534,6.6455 -8.4487,0 -15.4188,-6.7494 -15.4188,-15.16 C 43.8929,7.88798 50.7575,1.13867 59.3118,1.13867 46.0051,1.13867 35.233,11.7299 35.233,24.8132 Z"
           inkscape:connector-curvature="0"
           style="fill:url(#paint2_linear_206_358)" />
        <path
           id="path3686"
           d="m 59.3118,18.1689 c 8.4487,0 15.4189,6.7492 15.4189,15.1599 0,8.3068 -6.8646,15.1599 -15.4189,15.1599 13.3067,0 24.0788,-10.5912 24.0788,-23.6745 0,-8.3067 -6.8645,-15.1599 -15.4189,-15.1599 -8.4487,0 -15.4188,6.7493 -15.4188,15.1599 0,-3.6341 3.0626,-6.6453 6.7589,-6.6453 z"
           inkscape:connector-curvature="0"
           style="fill:url(#paint3_linear_206_358)" />
        <path
           id="path3688"
           d="M 244.972,31.6671 H 229.025 V 15.4687 c 0,-0.3115 -0.317,-0.623 -0.633,-0.623 h -3.486 c -0.316,0 -0.634,0.3115 -0.634,0.623 v 19.2096 c 0,0.3115 0.318,0.623 0.634,0.623 h 0.528 17.214 c 0.422,0 1.056,-0.3115 1.268,-0.7268 l 1.478,-2.2844 c 0.212,-0.3116 0,-0.623 -0.422,-0.623 z"
           inkscape:connector-curvature="0"
           style="fill:#203c7c" />
        <path
           id="path3690"
           d="m 161.013,34.5745 c 0,0.3114 0.317,0.623 0.634,0.623 h 3.485 c 0.317,0 0.633,-0.3116 0.633,-0.623 V 15.4687 c 0,-0.3115 -0.316,-0.623 -0.633,-0.623 h -3.485 c -0.317,0 -0.634,0.3115 -0.634,0.623 z"
           inkscape:connector-curvature="0"
           style="fill:#203c7c" />
        <path
           id="path3692"
           d="M 220.048,31.6671 H 204.206 V 15.4687 c 0,-0.3115 -0.316,-0.623 -0.632,-0.623 h -3.486 c -0.317,0 -0.633,0.3115 -0.633,0.623 v 19.2096 c 0,0.3115 0.316,0.623 0.633,0.623 h 0.528 17.215 c 0.422,0 1.056,-0.3115 1.267,-0.7268 l 1.478,-2.2844 c 0.106,-0.3116 0,-0.623 -0.528,-0.623 z"
           inkscape:connector-curvature="0"
           style="fill:#203c7c" />
        <path
           id="path3694"
           d="m 127.746,31.6674 h -17.214 v -4.7765 h 9.716 c 0.423,0 1.056,-0.3114 1.267,-0.7268 l 1.373,-2.2844 c 0.212,-0.4153 0.106,-0.7269 -0.422,-0.7269 h -9.716 c -0.423,0 -1.056,0.3116 -1.267,0.7269 l -1.056,1.6613 v -7.0608 h 13.623 c 0.422,0 1.056,-0.3114 1.267,-0.7267 l 1.373,-2.2845 c 0.212,-0.4153 0.106,-0.7268 -0.422,-0.7268 h -17.109 c -1.901,0 -3.379,1.4537 -3.379,3.3227 v 16.5099 c 0,0.3116 0.317,0.623 0.633,0.623 h 19.115 c 0.423,0 1.057,-0.3114 1.268,-0.7269 l 1.373,-2.1805 c 0.211,-0.3114 0,-0.623 -0.423,-0.623 z"
           inkscape:connector-curvature="0"
           style="fill:#203c7c" />
        <path
           id="path3696"
           d="m 194.491,31.6674 h -17.214 v -4.7765 h 9.716 c 0.422,0 1.056,-0.3114 1.267,-0.7268 l 1.374,-2.2844 c 0.21,-0.4153 0.105,-0.7269 -0.424,-0.7269 h -9.715 c -0.423,0 -1.056,0.3116 -1.268,0.7269 l -1.056,1.6613 v -7.0608 h 13.624 c 0.422,0 1.056,-0.3114 1.267,-0.7267 l 1.479,-2.2845 c 0.21,-0.4153 0.105,-0.7268 -0.423,-0.7268 h -17.32 c -1.901,0 -3.379,1.4537 -3.379,3.3227 v 16.5099 c 0,0.3116 0.317,0.623 0.634,0.623 h 19.115 c 0.422,0 1.055,-0.3114 1.267,-0.7269 l 1.372,-2.2844 c 0.318,-0.2075 0.106,-0.5191 -0.316,-0.5191 z"
           inkscape:connector-curvature="0"
           style="fill:#203c7c" />
        <path
           id="path3698"
           d="m 154.465,18.1685 c 0,-1.8691 -1.584,-3.3228 -3.379,-3.3228 h -15.63 c -1.901,0 -3.38,1.5575 -3.38,3.4267 v 16.4059 c 0,0.3115 0.317,0.623 0.634,0.623 h 3.485 c 0.317,0 0.634,-0.3115 0.634,-0.623 v -6.5416 h 10.032 l 2.535,6.5416 c 0.106,0.3115 0.528,0.623 0.845,0.623 h 3.802 c 0.317,0 0.528,-0.3115 0.422,-0.623 l -2.534,-6.6455 c 1.478,-0.4153 2.64,-1.6613 2.64,-3.3227 v -6.5416 z m -16.686,7.0608 -1.056,1.6613 v -8.4107 h 12.884 v 6.1264 h -10.561 c -0.422,-0.1039 -0.95,0.2075 -1.267,0.623 z"
           inkscape:connector-curvature="0"
           style="fill:#203c7c" />
      </g>
      <path
         id="path3702"
         d="M 6.26286,14.2218 0.188477,7.83592 C 0.313079,7.33746 2.10943,5.86302 2.99204,5.18811 5.58793,3.37099 13.0849,-0.0140514 22.3055,0.98277 31.526,1.97959 35.674621,11.206343 34.14025,14.021007 L 32.8967,27.1493 13.8948,39.2981 h 22.8957 v 8.5664 H 0.967243 V 39.2981 L 22.3055,21.8537 C 23.0842,19.1021 24.5483,12.9447 20.4364,10.328 16.3245,7.71137 8.96258,11.8336 6.26286,14.2218 Z"
         inkscape:connector-curvature="0"
         style="fill:#235091;stroke:#235091;stroke-width:0.31150699"
         sodipodi:nodetypes="cccccccccccccc" />
      <path
         id="path3704"
         d="M 0.82110071,29.750725 V 48.034871 C 5.9151892,40.960974 19.891814,35.997725 26.757484,33.347604 c 2.329605,-0.899243 6.460809,-3.147211 7.454796,-4.346203 0.993986,-1.19899 0.580393,-11.170948 0.373347,-17.315544 -0.931862,1.198897 -8.328548,2.910382 -18.13282,6.978961 C 6.2921994,22.881357 2.8400948,26.953203 0.82110071,29.750725 Z"
         inkscape:connector-curvature="0"
         style="fill:url(#paint4_linear_206_358);stroke-width:0.96792716" />
      <path
         id="path3706"
         d="m 12.8419,28.2532 -1.8311,0.8855 c 0.1457,0.3658 0.3057,0.7611 0.4799,1.1858 0.1701,0.4164 0.3297,0.843 0.4787,1.28 0.1449,0.4285 0.2668,0.8526 0.3658,1.2722 0.095,0.4111 0.1443,0.7924 0.148,1.1438 0.0121,0.3473 -0.0359,0.6562 -0.144,0.9266 -0.1038,0.258 -0.2862,0.4501 -0.5472,0.5763 -0.16,0.0773 -0.303,0.1361 -0.429,0.1762 -0.126,0.0402 -0.2455,0.0616 -0.3585,0.0643 l -0.2576,-0.9194 c 0.1174,-0.0152 0.2349,-0.0513 0.3528,-0.1083 0.1684,-0.0814 0.2853,-0.2263 0.3508,-0.4345 0.0655,-0.2083 0.0531,-0.5347 -0.0372,-0.9792 -0.0944,-0.453 -0.2789,-1.0494 -0.5535,-1.7892 -0.2746,-0.7398 -0.6741,-1.6841 -1.1984,-2.8329 l 3.7634,-1.8197 3.0533,6.3144 -1.0103,0.4885 z m 9.9454,1.2678 c -0.1549,0.3242 -0.3975,0.6389 -0.7277,0.944 -0.3219,0.3011 -0.6975,0.5554 -1.1269,0.7631 -0.4799,0.232 -0.9333,0.3578 -1.3602,0.3772 -0.4309,0.011 -0.8293,-0.0716 -1.195,-0.248 -0.3698,-0.1847 -0.7072,-0.4527 -1.012,-0.8039 -0.3049,-0.3512 -0.5795,-0.7794 -0.8237,-1.2845 -0.5211,-1.0777 -0.6781,-2.0146 -0.471,-2.8107 0.2072,-0.7962 0.757,-1.41 1.6494,-1.8415 0.2863,-0.1384 0.5888,-0.2432 0.9076,-0.3143 0.3148,-0.0794 0.6285,-0.0857 0.9414,-0.0188 0.3128,0.0668 0.6201,0.2299 0.922,0.489 0.2978,0.2507 0.575,0.6413 0.8315,1.1717 0.1343,0.2778 0.2577,0.5973 0.37,0.9585 l -4.0539,1.9603 c 0.1792,0.3704 0.3758,0.6804 0.59,0.93 0.2142,0.2497 0.4501,0.4368 0.7078,0.5615 0.2536,0.1163 0.5331,0.1681 0.8386,0.1554 0.3099,-0.0251 0.65,-0.1273 1.0205,-0.3064 0.2862,-0.1384 0.5481,-0.3274 0.7855,-0.5668 0.2374,-0.2394 0.3951,-0.4611 0.4731,-0.665 z m -4.627,-4.0264 c -0.4967,0.2402 -0.8336,0.564 -1.0104,0.9716 -0.1685,0.4035 -0.1296,0.9352 0.1168,1.5951 l 3.132,-1.5144 c -0.3094,-0.6399 -0.6473,-1.0271 -1.0135,-1.1616 -0.3704,-0.1429 -0.7787,-0.1065 -1.2249,0.1093 z m 8.0649,-3.7128 -1.9701,0.9526 2.6259,5.4304 -1.0103,0.4885 -2.6259,-5.4304 -1.9701,0.9527 -0.4274,-0.884 4.9505,-2.3938 z"
         inkscape:connector-curvature="0"
         style="fill:#ffffff" />
    </g>
  </g>
</svg>
